# Exported from Wings 3D 2.4.1
mtllib stocksGraphSpike.mtl
o Cube1
#32 vertices, 30 faces
v -1.96334690 0.76557706 -4.46970079
v -1.96334690 1.48752906 -4.46970079
v -1.24139490 0.76557706 -4.46970079
v -1.24139490 1.48752906 -4.46970079
v -2.50557840 0.69492468 -5.11717056
v -2.50557840 1.39038868 -5.11717056
v -1.81011440 0.69492468 -5.11717056
v -1.81011440 1.39038868 -5.11717056
v -1.45634830 1.41254534 -5.50356113
v -1.45634830 2.10800934 -5.50356113
v -0.76088430 1.41254534 -5.50356113
v -0.76088430 2.10800934 -5.50356113
v -2.58099429 1.08094225 -6.34892599
v -2.58099429 1.77640625 -6.34892599
v -1.88553029 1.08094225 -6.34892599
v -1.88553029 1.77640625 -6.34892599
v -1.71787016 1.79333742 -7.01810799
v -1.71787016 2.48880142 -7.01810799
v -1.02240616 1.79333742 -7.01810799
v -1.02240616 2.48880142 -7.01810799
v -3.55525332 1.23448720 -8.35001097
v -3.55525332 1.92995120 -8.35001097
v -2.85978932 1.23448720 -8.35001097
v -2.85978932 1.92995120 -8.35001097
v -1.88515182 2.25486655 -8.69165586
v -1.88515182 2.95033055 -8.69165586
v -1.18968782 2.25486655 -8.69165586
v -1.18968782 2.95033055 -8.69165586
v -6.16987287 0.91787018 -10.33612862
v -6.16987287 1.63982218 -10.33612862
v -5.44792087 0.91787018 -10.33612862
v -5.44792087 1.63982218 -10.33612862
vn 0.13356633 0.28994603 -0.94767681
vn -0.42305397 0.0000000e+0 0.90610448
vn 0.0000000e+0 -0.99409898 0.10847681
vn -0.42305397 0.0000000e+0 0.90610448
vn -0.42305397 0.0000000e+0 0.90610448
vn -0.42305397 0.0000000e+0 0.90610448
vn 0.0000000e+0 0.98893189 -0.14837020
vn 0.0000000e+0 0.0000000e+0 1.00000000
vn 0.0000000e+0 -0.99409898 0.10847681
vn 0.75131970 0.0000000e+0 -0.65993841
vn 0.0000000e+0 0.0000000e+0 1.00000000
vn 0.75131970 0.0000000e+0 -0.65993841
vn 0.0000000e+0 0.98893189 -0.14837020
vn -0.15153762 -0.64381272 -0.75002769
vn -0.76666220 0.0000000e+0 0.64205068
vn -0.15153762 -0.64381272 -0.75002769
vn -0.15153762 -0.64381272 -0.75002769
vn -0.76666220 0.0000000e+0 0.64205068
vn 0.0000000e+0 0.89427913 0.44750959
vn 0.0000000e+0 0.89427913 0.44750959
vn -0.34557315 0.0000000e+0 -0.93839181
vn 0.0000000e+0 -0.88509733 -0.46540597
vn 0.75131970 0.0000000e+0 -0.65993841
vn 0.34557315 0.0000000e+0 0.93839181
vn 0.0000000e+0 -0.88509733 -0.46540597
vn 0.75131970 0.0000000e+0 -0.65993841
vn 0.15377185 0.65100567 0.74333427
vn 0.15377185 0.65100567 0.74333427
vn 0.15377185 0.65100567 0.74333427
vn -0.18082000 -0.24806092 -0.95171945
vn -0.18082000 -0.24806092 -0.95171945
vn 0.0000000e+0 -0.93094046 0.36517100
vn -0.60085502 0.0000000e+0 0.79935802
vn 0.0000000e+0 0.47408028 0.88048162
vn -0.34557315 0.0000000e+0 -0.93839181
vn -0.60085502 0.0000000e+0 0.79935802
vn 0.0000000e+0 0.93094046 -0.36517100
vn 0.34557315 0.0000000e+0 0.93839181
vn 0.0000000e+0 -0.47408028 -0.88048162
vn 0.0000000e+0 -0.93094046 0.36517100
vn 0.60085502 0.0000000e+0 -0.79935802
vn 0.18082000 0.24806092 0.95171945
vn 0.18082000 0.24806092 0.95171945
vn 0.0000000e+0 0.93094046 -0.36517100
vn 0.60085502 0.0000000e+0 -0.79935802
vn 0.0000000e+0 -0.97558552 -0.21961987
vn -0.60085502 0.0000000e+0 0.79935802
vn 0.0000000e+0 -0.97558552 -0.21961987
vn -0.61272084 0.0000000e+0 -0.79029942
vn -0.60085502 0.0000000e+0 0.79935802
vn 0.0000000e+0 0.97558552 0.21961987
vn 0.0000000e+0 0.97558552 0.21961987
vn -0.61272084 0.0000000e+0 -0.79029942
vn 0.0000000e+0 -0.97558552 -0.21961987
vn 0.60085502 0.0000000e+0 -0.79935802
vn 0.61272084 0.0000000e+0 0.79029942
vn 0.0000000e+0 -0.97558552 -0.21961987
vn 0.0000000e+0 0.97558552 0.21961987
vn 0.60085502 0.0000000e+0 -0.79935802
vn 0.61272084 0.0000000e+0 0.79029942
vn 0.0000000e+0 0.97558552 0.21961987
vn 0.0000000e+0 -0.97809460 -0.20816090
vn -0.61272084 0.0000000e+0 -0.79029942
vn -0.58690986 0.0000000e+0 0.80965228
vn 0.0000000e+0 -0.97809460 -0.20816090
vn 0.0000000e+0 0.97809460 0.20816090
vn -0.61272084 0.0000000e+0 -0.79029942
vn -0.58690986 0.0000000e+0 0.80965228
vn 0.0000000e+0 0.97809460 0.20816090
vn 0.61272084 0.0000000e+0 0.79029942
vn 0.0000000e+0 -0.97809460 -0.20816090
vn 0.58690986 0.0000000e+0 -0.80965228
vn 0.0000000e+0 -0.97809460 -0.20816090
vn 0.61272084 0.0000000e+0 0.79029942
vn 0.0000000e+0 0.97809460 0.20816090
vn 0.58690986 0.0000000e+0 -0.80965228
vn 0.0000000e+0 0.97809460 0.20816090
vn -0.58690986 0.0000000e+0 0.80965228
vn 0.0000000e+0 -0.92211776 0.38690934
vn -0.10203443 -0.16164301 -0.98156024
vn -0.10203443 -0.16164301 -0.98156024
vn -0.58690986 0.0000000e+0 0.80965228
vn 0.0000000e+0 0.92211776 -0.38690934
vn 0.0000000e+0 0.31749749 0.94825911
vn -0.20041494 0.0000000e+0 -0.97971111
vn 0.58690986 0.0000000e+0 -0.80965228
vn 0.0000000e+0 -0.92211776 0.38690934
vn 0.0000000e+0 -0.31749749 -0.94825911
vn 0.20041494 0.0000000e+0 0.97971111
vn 0.58690986 0.0000000e+0 -0.80965228
vn 0.0000000e+0 0.92211776 -0.38690934
vn 0.10203443 0.16164301 0.98156024
vn 0.10203443 0.16164301 0.98156024
vn -0.10203443 -0.16164301 -0.98156024
vn -0.10203443 -0.16164301 -0.98156024
vn -0.20099956 -0.43525512 0.87758313
vn -0.20099956 -0.43525512 0.87758313
vn 0.0000000e+0 0.31749749 0.94825911
vn -0.20041494 0.0000000e+0 -0.97971111
vn 0.0000000e+0 0.78204353 -0.62322381
vn -0.35831524 0.0000000e+0 0.93360066
vn 0.0000000e+0 -0.31749749 -0.94825911
vn 0.20041494 0.0000000e+0 0.97971111
vn -1.4782921e-16 -0.77591485 0.63083765
vn 0.36025562 0.0000000e+0 -0.93285363
vn 0.10203443 0.16164301 0.98156024
vn 0.10203443 0.16164301 0.98156024
vn 0.20257139 0.43974233 -0.87498086
vn 0.20257139 0.43974233 -0.87498086
vn -0.20099956 -0.43525512 0.87758313
vn -0.20099956 -0.43525512 0.87758313
vn 0.0000000e+0 0.0000000e+0 -1.00000000
vn 0.0000000e+0 0.43403697 -0.90089506
vn -0.35831524 0.0000000e+0 0.93360066
vn 0.0000000e+0 0.43403697 -0.90089506
vn -1.4782921e-16 -0.77591485 0.63083765
vn 0.18322987 0.0000000e+0 -0.98307010
vn 0.18322987 0.0000000e+0 -0.98307010
g Cube1_default
usemtl default
s 1
f 3//10 7//23 8//26 4//12
f 10//36 14//50 13//47 9//33
f 15//56 19//70 20//74 16//60
f 21//80 25//94 27//102 23//88
f 22//85 26//99 25//95 21//81
f 27//105 31//117 32//1 28//109
f 28//108 32//1 30//113 26//100
f 32//1 31//118 29//112 30//115
s 2
f 1//2 3//8 4//11 2//5
f 2//6 6//18 5//15 1//4
f 9//32 13//46 15//54 11//40
f 12//44 16//58 14//51 10//37
f 13//48 17//62 19//71 15//57
f 16//61 20//75 18//66 14//52
f 17//65 21//79 23//87 19//73
f 20//77 24//91 22//83 18//69
f 25//96 29//110 31//116 27//104
f 26//101 30//114 29//111 25//97
s 3
f 1//3 5//14 7//22 3//9
f 5//16 9//30 11//39 7//25
f 6//21 10//35 9//31 5//17
f 11//41 15//55 16//59 12//45
f 14//53 18//67 17//63 13//49
f 19//72 23//86 24//90 20//76
s 4
f 4//13 8//27 6//19 2//7
f 7//24 11//38 12//42 8//28
f 8//29 12//43 10//34 6//20
f 18//68 22//82 21//78 17//64
f 23//89 27//103 28//107 24//93
f 24//92 28//106 26//98 22//84
